<svg xmlns="http://www.w3.org/2000/svg" viewBox="0 0 64 80" x="0px" y="0px"><g><path d="M20,33A17.019,17.019,0,0,0,3,50V60a1,1,0,0,0,1,1H36a1,1,0,0,0,1-1V50A17.019,17.019,0,0,0,20,33Z"/><circle cx="20" cy="22" r="10"/><path d="M52.508,3.494a1,1,0,0,0-1.416,1.413,27,27,0,0,1,0,38.186,1,1,0,1,0,1.416,1.413,29,29,0,0,0,0-41.012Z"/><path d="M48.967,7.033a1,1,0,0,0-1.414,1.414,21.984,21.984,0,0,1,0,31.106,1,1,0,1,0,1.414,1.414,23.983,23.983,0,0,0,0-33.934Z"/><path d="M45.438,10.564a1,1,0,0,0-1.416,1.412,17.011,17.011,0,0,1,0,24.048,1,1,0,1,0,1.416,1.412,19.01,19.01,0,0,0,0-26.872Z"/><path d="M41.9,14.1a1,1,0,1,0-1.414,1.414,11.989,11.989,0,0,1,0,16.966A1,1,0,1,0,41.9,33.9a13.988,13.988,0,0,0,0-19.794Z"/><path d="M38.37,17.635a1,1,0,0,0-1.42,1.409,7.016,7.016,0,0,1,0,9.912,1,1,0,0,0,1.42,1.409,9.017,9.017,0,0,0,0-12.73Z"/></g><text x="0" y="79" fill="#000000" font-size="5px" font-weight="bold" font-family="'Helvetica Neue', Helvetica, Arial-Unicode, Arial, Sans-serif">Created by Ade Nur Hidayat</text><text x="0" y="84" fill="#000000" font-size="5px" font-weight="bold" font-family="'Helvetica Neue', Helvetica, Arial-Unicode, Arial, Sans-serif">from the Noun Project</text></svg>